<mxfile host="app.diagrams.net" modified="2023-04-11T18:25:07.123Z" agent="Mozilla/5.0 (X11; Linux x86_64; rv:109.0) Gecko/20100101 Firefox/111.0" etag="mqhx5anaB3G_pTPqkRy9" version="21.1.4" type="device">
  <diagram name="Página-1" id="AvLUnw90TaFhlQHaY8LK">
    <mxGraphModel dx="1434" dy="732" grid="1" gridSize="10" guides="1" tooltips="1" connect="1" arrows="1" fold="1" page="1" pageScale="1" pageWidth="827" pageHeight="1169" math="0" shadow="0">
      <root>
        <mxCell id="0" />
        <mxCell id="1" parent="0" />
        <mxCell id="kqJF-_SMoIaTMhnPQcGV-2" value="" style="rounded=1;whiteSpace=wrap;html=1;labelPosition=center;verticalLabelPosition=bottom;align=center;verticalAlign=top;fillColor=#fff2cc;strokeColor=#d6b656;" vertex="1" parent="1">
          <mxGeometry x="180" y="160" width="600" height="300" as="geometry" />
        </mxCell>
        <mxCell id="kqJF-_SMoIaTMhnPQcGV-5" value="" style="edgeStyle=orthogonalEdgeStyle;rounded=0;orthogonalLoop=1;jettySize=auto;html=1;" edge="1" parent="1" source="4d2zQpIDs25eRN6ht3no-1" target="4d2zQpIDs25eRN6ht3no-4">
          <mxGeometry relative="1" as="geometry" />
        </mxCell>
        <mxCell id="4d2zQpIDs25eRN6ht3no-1" value="&lt;b&gt;Deployment&lt;/b&gt;" style="rounded=1;whiteSpace=wrap;html=1;fillColor=#ffe6cc;strokeColor=#d79b00;" parent="1" vertex="1">
          <mxGeometry x="340" y="220" width="120" height="60" as="geometry" />
        </mxCell>
        <mxCell id="kqJF-_SMoIaTMhnPQcGV-3" value="" style="edgeStyle=orthogonalEdgeStyle;rounded=0;orthogonalLoop=1;jettySize=auto;html=1;" edge="1" parent="1" source="4d2zQpIDs25eRN6ht3no-2" target="kqJF-_SMoIaTMhnPQcGV-1">
          <mxGeometry relative="1" as="geometry" />
        </mxCell>
        <mxCell id="kqJF-_SMoIaTMhnPQcGV-4" value="" style="edgeStyle=orthogonalEdgeStyle;rounded=0;orthogonalLoop=1;jettySize=auto;html=1;" edge="1" parent="1" source="4d2zQpIDs25eRN6ht3no-2" target="4d2zQpIDs25eRN6ht3no-1">
          <mxGeometry relative="1" as="geometry" />
        </mxCell>
        <mxCell id="4d2zQpIDs25eRN6ht3no-2" value="&lt;b&gt;ImageStream&lt;/b&gt;" style="rounded=1;whiteSpace=wrap;html=1;fillColor=#ffe6cc;strokeColor=#d79b00;" parent="1" vertex="1">
          <mxGeometry x="200" y="220" width="100" height="60" as="geometry" />
        </mxCell>
        <mxCell id="kqJF-_SMoIaTMhnPQcGV-6" value="" style="edgeStyle=orthogonalEdgeStyle;rounded=0;orthogonalLoop=1;jettySize=auto;html=1;" edge="1" parent="1" source="4d2zQpIDs25eRN6ht3no-4" target="4d2zQpIDs25eRN6ht3no-6">
          <mxGeometry relative="1" as="geometry" />
        </mxCell>
        <mxCell id="4d2zQpIDs25eRN6ht3no-4" value="&lt;b&gt;ReplicaSet&lt;/b&gt;" style="rounded=1;whiteSpace=wrap;html=1;fillColor=#ffe6cc;strokeColor=#d79b00;" parent="1" vertex="1">
          <mxGeometry x="490" y="220" width="120" height="60" as="geometry" />
        </mxCell>
        <mxCell id="4d2zQpIDs25eRN6ht3no-6" value="&lt;b&gt;PODS&lt;/b&gt;" style="rounded=1;whiteSpace=wrap;html=1;fillColor=#ffe6cc;strokeColor=#d79b00;" parent="1" vertex="1">
          <mxGeometry x="640" y="220" width="120" height="60" as="geometry" />
        </mxCell>
        <mxCell id="4d2zQpIDs25eRN6ht3no-10" value="&lt;div align=&quot;left&quot;&gt;&lt;font size=&quot;1&quot;&gt;&lt;b style=&quot;font-size: 22px;&quot;&gt;Despliegue de aplicaciones desde imágenes&lt;/b&gt;&lt;/font&gt;&lt;/div&gt;" style="text;strokeColor=none;align=left;fillColor=none;html=1;verticalAlign=middle;whiteSpace=wrap;rounded=0;" parent="1" vertex="1">
          <mxGeometry x="270" y="120" width="420" height="30" as="geometry" />
        </mxCell>
        <mxCell id="kqJF-_SMoIaTMhnPQcGV-1" value="&lt;div&gt;&lt;b&gt;Imagen&lt;/b&gt;&lt;/div&gt;&lt;div&gt;&lt;b&gt;(registro)&lt;br&gt;&lt;/b&gt;&lt;/div&gt;" style="shape=cylinder3;whiteSpace=wrap;html=1;boundedLbl=1;backgroundOutline=1;size=15;fillColor=#dae8fc;strokeColor=#6c8ebf;" vertex="1" parent="1">
          <mxGeometry x="60" y="210" width="90" height="80" as="geometry" />
        </mxCell>
        <mxCell id="kqJF-_SMoIaTMhnPQcGV-9" value="" style="edgeStyle=orthogonalEdgeStyle;rounded=0;orthogonalLoop=1;jettySize=auto;html=1;" edge="1" parent="1" source="kqJF-_SMoIaTMhnPQcGV-7" target="4d2zQpIDs25eRN6ht3no-6">
          <mxGeometry relative="1" as="geometry" />
        </mxCell>
        <mxCell id="kqJF-_SMoIaTMhnPQcGV-7" value="&lt;b&gt;Service&lt;/b&gt;" style="rounded=1;whiteSpace=wrap;html=1;fillColor=#d5e8d4;strokeColor=#82b366;" vertex="1" parent="1">
          <mxGeometry x="640" y="300" width="120" height="60" as="geometry" />
        </mxCell>
        <mxCell id="kqJF-_SMoIaTMhnPQcGV-11" value="" style="edgeStyle=orthogonalEdgeStyle;rounded=0;orthogonalLoop=1;jettySize=auto;html=1;" edge="1" parent="1" source="kqJF-_SMoIaTMhnPQcGV-8" target="kqJF-_SMoIaTMhnPQcGV-7">
          <mxGeometry relative="1" as="geometry" />
        </mxCell>
        <mxCell id="kqJF-_SMoIaTMhnPQcGV-8" value="&lt;b&gt;Route&lt;/b&gt;" style="rounded=1;whiteSpace=wrap;html=1;fillColor=#d5e8d4;strokeColor=#82b366;" vertex="1" parent="1">
          <mxGeometry x="640" y="390" width="120" height="60" as="geometry" />
        </mxCell>
        <mxCell id="kqJF-_SMoIaTMhnPQcGV-13" value="" style="html=1;shadow=0;dashed=0;align=center;verticalAlign=middle;shape=mxgraph.arrows2.arrow;dy=0.6;dx=40;direction=north;notch=0;fillColor=#e1d5e7;strokeColor=#9673a6;" vertex="1" parent="1">
          <mxGeometry x="690" y="450" width="30" height="100" as="geometry" />
        </mxCell>
        <mxCell id="kqJF-_SMoIaTMhnPQcGV-14" value="&lt;h1&gt;OpenShift&lt;/h1&gt;" style="text;strokeColor=none;align=center;fillColor=none;html=1;verticalAlign=middle;whiteSpace=wrap;rounded=0;" vertex="1" parent="1">
          <mxGeometry x="250" y="420" width="60" height="30" as="geometry" />
        </mxCell>
      </root>
    </mxGraphModel>
  </diagram>
</mxfile>
